  0
SECTION
  2
HEADER
  9
$ACADVER
  1
AC1009
  0
ENDSEC
  0
SECTION
  2
ENTITIES
  0
CIRCLE
  5
90
  8
Layer_0
  62
0
  10
415.25641
  20
221.02139
  30
0
  40
8.2189035
  0
CIRCLE
  5
90
  8
Layer_0
  62
0
  10
388.73145
  20
220.8186
  30
0
  40
8.2189035
  0
POLYLINE
  5
90
  8
Layer_0
  62
0
  66
1
  10
0
  20
0
  30
0
  0
VERTEX
  5
90
  8
Layer_0
  10
407.03778
  20
220.95865
  42
-0.41421356
  0
VERTEX
  5
91
  8
Layer_0
  10
415.1936
  20
229.24014
  42
-0.41421356
  0
VERTEX
  5
92
  8
Layer_0
  10
423.4751
  20
221.08432
  42
-0.41421356
  0
VERTEX
  5
93
  8
Layer_0
  10
415.31927
  20
212.80283
  42
-0.41421356
  0
VERTEX
  5
94
  8
Layer_0
  10
407.03778
  20
220.95865
  0
SEQEND
  0
POLYLINE
  5
96
  8
Layer_0
  62
0
  66
1
  10
0
  20
0
  30
0
  0
VERTEX
  5
96
  8
Layer_0
  10
380.51276
  20
220.75586
  42
-0.41421356
  0
VERTEX
  5
97
  8
Layer_0
  10
388.66858
  20
229.03735
  42
-0.41421356
  0
VERTEX
  5
98
  8
Layer_0
  10
396.95007
  20
220.88153
  42
-0.41421356
  0
VERTEX
  5
99
  8
Layer_0
  10
388.79425
  20
212.60004
  42
-0.41421356
  0
VERTEX
  5
9a
  8
Layer_0
  10
380.51276
  20
220.75586
  0
SEQEND
  0
POLYLINE
  5
9c
  8
Layer_0
  62
0
  66
1
  10
0
  20
0
  30
0
  0
VERTEX
  5
9c
  8
Layer_0
  10
380.51233
  20
220.75583
  42
-0.41421356
  0
VERTEX
  5
9d
  8
Layer_0
  10
388.66815
  20
229.03732
  42
-0.41421356
  0
VERTEX
  5
9e
  8
Layer_0
  10
396.94965
  20
220.8815
  42
-0.41421356
  0
VERTEX
  5
9f
  8
Layer_0
  10
388.79382
  20
212.60001
  42
-0.41421356
  0
VERTEX
  5
a0
  8
Layer_0
  10
380.51233
  20
220.75583
  0
SEQEND
  0
POLYLINE
  5
a2
  8
Layer_1
  62
5
  66
1
  10
0
  20
0
  30
0
  0
VERTEX
  5
a2
  8
Layer_1
  10
407.04602
  20
220.95868
  0
VERTEX
  5
a3
  8
Layer_1
  10
407.04541
  20
221.03857
  0
VERTEX
  5
a4
  8
Layer_1
  10
396.95462
  20
220.96143
  0
VERTEX
  5
a5
  8
Layer_1
  10
396.95523
  20
220.88153
  0
VERTEX
  5
a6
  8
Layer_1
  10
407.04602
  20
220.95868
  0
SEQEND
  0
POLYLINE
  5
a8
  8
Layer_0
  62
0
  66
1
  10
0
  20
0
  30
0
  0
VERTEX
  5
a8
  8
Layer_0
  10
420.62149
  20
232.59885
  0
VERTEX
  5
a9
  8
Layer_0
  10
420.6221
  20
232.51898
  0
SEQEND
  0
POLYLINE
  5
ab
  8
Layer_0
  62
0
  66
1
  10
0
  20
0
  30
0
  0
VERTEX
  5
ab
  8
Layer_0
  10
388.66867
  20
229.03427
  0
VERTEX
  5
ac
  8
Layer_0
  10
388.66806
  20
229.11414
  0
SEQEND
  0
POLYLINE
  5
ae
  8
Layer_0
  62
0
  66
1
  10
0
  20
0
  30
0
  0
VERTEX
  5
ae
  8
Layer_0
  10
388.79431
  20
212.60306
  0
VERTEX
  5
af
  8
Layer_0
  10
388.7937
  20
212.68295
  0
SEQEND
  0
POLYLINE
  5
b1
  8
Layer_0
  62
0
  66
1
  10
0
  20
0
  30
0
  0
VERTEX
  5
b1
  8
Layer_0
  10
415.24249
  20
216.28784
  0
VERTEX
  5
b2
  8
Layer_0
  10
415.24188
  20
216.36771
  0
SEQEND
  0
POLYLINE
  5
b4
  8
Layer_0
  62
0
  66
1
  10
0
  20
0
  30
0
  0
VERTEX
  5
b4
  8
Layer_0
  10
396.95648
  20
225.92163
  0
VERTEX
  5
b5
  8
Layer_0
  10
406.95618
  20
225.99811
  0
VERTEX
  5
b6
  8
Layer_0
  10
406.9256
  20
229.99799
  0
VERTEX
  5
b7
  8
Layer_0
  10
396.9259
  20
229.92151
  0
VERTEX
  5
b8
  8
Layer_0
  10
396.95648
  20
225.92163
  0
SEQEND
  0
POLYLINE
  5
ba
  8
Layer_0
  62
0
  66
1
  10
0
  20
0
  30
0
  0
VERTEX
  5
ba
  8
Layer_0
  10
377
  20
234
  0
VERTEX
  5
bb
  8
Layer_0
  10
427
  20
234
  0
VERTEX
  5
bc
  8
Layer_0
  10
427
  20
208
  0
VERTEX
  5
bd
  8
Layer_0
  10
377
  20
208
  0
VERTEX
  5
be
  8
Layer_0
  10
377
  20
234
  0
SEQEND
  0
POLYLINE
  5
c0
  8
Layer_0
  62
0
  66
1
  10
0
  20
0
  30
0
  0
VERTEX
  5
c0
  8
Layer_0
  10
375.91321
  20
283.00656
  0
VERTEX
  5
c1
  8
Layer_0
  10
425.91324
  20
283.00656
  0
VERTEX
  5
c2
  8
Layer_0
  10
425.91324
  20
263.00656
  0
VERTEX
  5
c3
  8
Layer_0
  10
375.91321
  20
263.00656
  0
VERTEX
  5
c4
  8
Layer_0
  10
375.91321
  20
283.00656
  0
SEQEND
  0
POLYLINE
  5
c6
  8
Layer_0
  62
0
  66
1
  10
0
  20
0
  30
0
  0
VERTEX
  5
c6
  8
Layer_0
  10
375.91321
  20
331.00656
  0
VERTEX
  5
c7
  8
Layer_0
  10
425.91324
  20
331.00656
  0
VERTEX
  5
c8
  8
Layer_0
  10
425.91324
  20
311.00656
  0
VERTEX
  5
c9
  8
Layer_0
  10
375.91321
  20
311.00656
  0
VERTEX
  5
ca
  8
Layer_0
  10
375.91321
  20
331.00656
  0
SEQEND
  0
POLYLINE
  5
cc
  8
Layer_0
  62
0
  66
1
  10
0
  20
0
  30
0
  0
VERTEX
  5
cc
  8
Layer_0
  10
401.91324
  20
320.50656
  0
VERTEX
  5
cd
  8
Layer_0
  10
401.91324
  20
320.50656
  0
VERTEX
  5
ce
  8
Layer_0
  10
401.91324
  20
319.50656
  0
VERTEX
  5
cf
  8
Layer_0
  10
401.91324
  20
319.50656
  0
VERTEX
  5
d0
  8
Layer_0
  10
401.91324
  20
320.50656
  0
SEQEND
  0
POLYLINE
  5
d2
  8
Layer_0
  62
0
  66
1
  10
0
  20
0
  30
0
  0
VERTEX
  5
d2
  8
Layer_0
  10
375.91321
  20
310.00656
  0
VERTEX
  5
d3
  8
Layer_0
  10
395.91321
  20
310.00656
  0
VERTEX
  5
d4
  8
Layer_0
  10
395.91321
  20
284.00656
  0
VERTEX
  5
d5
  8
Layer_0
  10
375.91321
  20
284.00656
  0
VERTEX
  5
d6
  8
Layer_0
  10
375.91321
  20
310.00656
  0
SEQEND
  0
POLYLINE
  5
d8
  8
Layer_0
  62
0
  66
1
  10
0
  20
0
  30
0
  0
VERTEX
  5
d8
  8
Layer_0
  10
416.91324
  20
310.00656
  0
VERTEX
  5
d9
  8
Layer_0
  10
396.91324
  20
310.00656
  0
VERTEX
  5
da
  8
Layer_0
  10
396.91324
  20
284.00656
  0
VERTEX
  5
db
  8
Layer_0
  10
416.91324
  20
284.00656
  0
VERTEX
  5
dc
  8
Layer_0
  10
416.91324
  20
310.00656
  0
SEQEND
  0
POLYLINE
  5
de
  8
Layer_0
  62
0
  66
1
  10
0
  20
0
  30
0
  0
VERTEX
  5
de
  8
Layer_0
  10
375.91321
  20
262.00656
  0
VERTEX
  5
df
  8
Layer_0
  10
425.91324
  20
262.00656
  0
VERTEX
  5
e0
  8
Layer_0
  10
425.91324
  20
236.00656
  0
VERTEX
  5
e1
  8
Layer_0
  10
375.91321
  20
236.00656
  0
VERTEX
  5
e2
  8
Layer_0
  10
375.91321
  20
262.00656
  0
SEQEND
  0
POLYLINE
  5
e4
  8
Layer_0
  62
0
  66
1
  10
0
  20
0
  30
0
  0
VERTEX
  5
e4
  8
Layer_0
  10
419.53473
  20
260.60541
  0
VERTEX
  5
e5
  8
Layer_0
  10
419.53534
  20
260.52551
  0
SEQEND
  0
ENDSEC
  0
EOF
